<svg xmlns="http://www.w3.org/2000/svg" viewBox="0 0 133.2 30">
    <title>Herdius</title>
    <rect fill="#fff" width="10" height="20"/>
    <rect fill="#fff" width="10" height="20" transform="translate(20 10)"/>
    <path fill="#fff" d="M39.9,22.3V7.9h2.4v6.3h7.2V7.9H52V22.4H49.6V16.5H42.4v5.9H39.9ZM66.2,7.9v2.3H58.5V14h6.9v2.2H58.5V20h8v2.3H56V7.9Zm11.7,6.7a2.541,2.541,0,0,0,.7-2.1,2.142,2.142,0,0,0-.8-1.9,4.6,4.6,0,0,0-2.7-.5H72v5.2h3a5.761,5.761,0,0,0,2.9-.7Zm3.2-2c0,2.4-1,3.9-3.1,4.5l3.8,5.3H78.7l-3.5-4.9H72v4.9H69.6V7.9H75A7.9,7.9,0,0,1,79.7,9a4.314,4.314,0,0,1,1.4,3.6Zm14.1,2.5c0-3.3-1.9-5-5.7-5H87.1V20h2.7a5.361,5.361,0,0,0,4-1.3,4.279,4.279,0,0,0,1.4-3.6m.4-5.4A6.783,6.783,0,0,1,97.7,15a7.085,7.085,0,0,1-2,5.3c-1.4,1.3-3.4,2-6.2,2H84.7V7.9h5a8.852,8.852,0,0,1,5.9,1.8m5.2,12.6h2.4V7.9h-2.4Zm9.7-3.3a3.637,3.637,0,0,0,5.4,0,4.454,4.454,0,0,0,1-3.1v-8h2.4V16a6.521,6.521,0,0,1-1.7,4.8,6.544,6.544,0,0,1-8.8,0,6.521,6.521,0,0,1-1.7-4.8V7.9h2.4v8a5.708,5.708,0,0,0,1,3.1m17.1-9.2a3.425,3.425,0,0,0-1.8.4,1.357,1.357,0,0,0-.7,1.3,1.357,1.357,0,0,0,.7,1.3,12.826,12.826,0,0,0,2.9,1,9.852,9.852,0,0,1,3.4,1.5,3.382,3.382,0,0,1,1.1,2.9,3.95,3.95,0,0,1-1.4,3.1,5.766,5.766,0,0,1-3.8,1.2,8.823,8.823,0,0,1-6-2.3l1.5-1.8a6.87,6.87,0,0,0,4.6,1.9,3.557,3.557,0,0,0,1.9-.5,1.457,1.457,0,0,0,.7-1.3,1.357,1.357,0,0,0-.7-1.3,5.992,5.992,0,0,0-2.2-.8c-1.1-.3-1.9-.5-2.4-.7a10.93,10.93,0,0,1-1.5-.8,3.309,3.309,0,0,1-1.3-3,3.5,3.5,0,0,1,1.5-3.1,6.147,6.147,0,0,1,3.6-1.1,9.746,9.746,0,0,1,2.8.5,6.983,6.983,0,0,1,2.4,1.3l-1.3,1.8a5.453,5.453,0,0,0-1.7-1,5.049,5.049,0,0,0-2.3-.5"/>
    <path fill="#8ec7ff" d="M20,10H30V0H20Z"/>
    <path fill="#1195f7" d="M10,20H20V10H10Z"/>
    <path fill="#0053fb" d="M0,30H10V20H0Z"/>
</svg>
