<?xml version="1.0" standalone="no"?>
<!DOCTYPE svg PUBLIC "-//W3C//DTD SVG 20010904//EN"
 "http://www.w3.org/TR/2001/REC-SVG-20010904/DTD/svg10.dtd">
<svg version="1.0" xmlns="http://www.w3.org/2000/svg"
 width="512.000000pt" height="512.000000pt" viewBox="0 0 512.000000 512.000000"
 preserveAspectRatio="xMidYMid meet">
<metadata>
Created by potrace 1.11, written by Peter Selinger 2001-2013
</metadata>
<g transform="translate(0.000000,512.000000) scale(0.100000,-0.100000)"
fill="#000000" stroke="none">
<path d="M1285 4481 l-1080 -638 -3 -1283 -2 -1282 22 14 c13 8 501 297 1086
642 l1062 628 0 1279 c0 703 -1 1279 -2 1279 -2 0 -489 -288 -1083 -639z"/>
<path d="M3445 3196 l-1070 -633 -3 -1276 c-1 -702 1 -1277 5 -1277 5 1 490
286 1078 634 l1070 632 3 1277 c1 702 -1 1277 -5 1276 -5 0 -489 -285 -1078
-633z"/>
</g>
</svg>
