<?xml version="1.0" standalone="no"?>
<!DOCTYPE svg PUBLIC "-//W3C//DTD SVG 20010904//EN"
 "http://www.w3.org/TR/2001/REC-SVG-20010904/DTD/svg10.dtd">
<svg version="1.0" xmlns="http://www.w3.org/2000/svg"
 width="260.000000pt" height="260.000000pt" viewBox="0 0 260.000000 260.000000"
 preserveAspectRatio="xMidYMid meet">
<metadata>
Created by potrace 1.11, written by Peter Selinger 2001-2013
</metadata>
<g transform="translate(0.000000,260.000000) scale(0.100000,-0.100000)"
fill="#000000" stroke="none">
<path d="M1267 2580 c-14 -11 -28 -20 -31 -20 -4 0 -23 -11 -44 -23 -20 -13
-57 -35 -82 -49 -25 -14 -146 -86 -270 -160 -188 -112 -503 -298 -608 -359
l-27 -16 -3 -652 -2 -653 32 20 c18 11 119 71 223 133 105 61 202 119 217 128
39 23 343 203 381 225 18 10 80 47 140 83 l107 64 0 650 c0 357 -2 649 -4 649
-2 0 -15 -9 -29 -20z"/>
<path d="M2170 1814 c-124 -74 -307 -183 -408 -242 -100 -59 -195 -115 -210
-124 -15 -10 -36 -22 -47 -27 -11 -6 -60 -34 -110 -64 l-90 -53 -3 -652 -2
-652 32 19 c18 10 179 105 358 211 179 106 350 207 380 225 259 151 307 179
318 189 10 10 13 145 13 656 0 353 -2 644 -3 645 -2 1 -104 -58 -228 -131z"/>
</g>
</svg>
